<?xml version="1.0" standalone="no"?>
<!DOCTYPE svg PUBLIC "-//W3C//DTD SVG 20010904//EN"
 "http://www.w3.org/TR/2001/REC-SVG-20010904/DTD/svg10.dtd">
<svg version="1.0" xmlns="http://www.w3.org/2000/svg"
 width="512.000000pt" height="512.000000pt" viewBox="0 0 512.000000 512.000000"
 preserveAspectRatio="xMidYMid meet">
<metadata>
Created by potrace 1.11, written by Peter Selinger 2001-2013
</metadata>
<g transform="translate(0.000000,512.000000) scale(0.100000,-0.100000)"
fill="#000000" stroke="none">
<path d="M2029 4479 c-116 -13 -257 -105 -316 -207 -65 -110 -79 -237 -39
-346 48 -133 205 -370 354 -532 l63 -69 52 55 c148 155 321 412 368 546 26 75
26 179 0 255 -71 206 -261 324 -482 298z m149 -270 c87 -42 125 -150 84 -241
-64 -146 -265 -149 -336 -6 -29 57 -31 75 -15 131 31 113 158 168 267 116z"/>
<path d="M3345 3926 c-139 -34 -278 -147 -340 -277 -42 -90 -59 -193 -44 -272
29 -157 161 -376 394 -652 l109 -128 65 69 c203 213 414 549 442 703 42 237
-130 492 -376 556 -69 18 -179 18 -250 1z m210 -300 c59 -28 88 -57 111 -111
60 -143 -45 -305 -199 -305 -63 0 -144 44 -182 98 -27 39 -30 51 -30 120 0 68
3 82 29 120 64 93 172 125 271 78z"/>
<path d="M1615 2952 c-314 -20 -544 -346 -447 -633 52 -154 247 -443 428 -637
l60 -64 65 79 c316 375 439 588 439 756 0 207 -130 391 -330 468 -58 23 -149
36 -215 31z m145 -317 c38 -20 86 -77 100 -121 18 -53 7 -138 -24 -185 -73
-110 -225 -132 -322 -46 -63 54 -90 132 -73 207 32 144 186 214 319 145z"/>
<path d="M3118 2144 c-93 -22 -174 -69 -248 -144 -128 -128 -185 -303 -149
-458 17 -71 109 -255 185 -367 76 -114 70 -106 224 -289 l115 -137 55 58 c155
162 361 457 432 618 38 86 50 139 49 218 -1 135 -55 258 -158 361 -132 132
-322 185 -505 140z m254 -330 c82 -57 118 -141 100 -231 -32 -156 -192 -235
-331 -164 -168 86 -159 331 14 413 63 29 161 21 217 -18z"/>
</g>
</svg>
